<svg xmlns="http://www.w3.org/2000/svg" aria-hidden="true" style="width:0;height:0;position:absolute;overflow:hidden"><defs><symbol id="icon-Burger" viewBox="0 0 32 32"><path fill="none" stroke="#D41443" stroke-width="1.6" d="M0 6.4h32M0 16h32M0 25.6h32" style="stroke:var(--color1,#d41443)"/></symbol><symbol id="icon-dot" viewBox="0 0 32 32"><path fill="#D9D9D9" d="M30.511 16c0 8.157-6.612 14.769-14.769 14.769S.973 24.157.973 16 7.585 1.231 15.742 1.231 30.511 7.843 30.511 16z" style="fill:var(--color2,#d9d9d9)"/></symbol><symbol id="icon-dots" viewBox="0 0 32 32"><path fill="#C7133E" d="M18 16a2 2 0 1 1-3.999.001A2 2 0 0 1 18 16zM4 16a2 2 0 1 1-3.999.001A2 2 0 0 1 4 16zm28 0a2 2 0 1 1-3.999.001A2 2 0 0 1 32 16z" style="fill:var(--color3,#c7133e)"/></symbol><symbol id="icon-Ex-in-modal-window" viewBox="0 0 32 32"><path fill="none" stroke="#fff" stroke-width="2" d="m2.519 2 26.963 28M2 29.481 30 2.518" style="stroke:var(--color4,#fff)"/></symbol><symbol id="icon-facebook-icon-off" viewBox="0 0 32 32"><path fill="#FEA5BB" d="M15.972 31.515c8.569 0 15.515-6.946 15.515-15.515S24.541.485 15.972.485.457 7.431.457 16s6.946 15.515 15.515 15.515z" style="fill:var(--color5,#fea5bb)"/><path fill="#fff" d="M20.282 15.982h-2.531v9.327h-3.835v-9.327h-1.824v-3.278h1.824v-2.121c0-1.517.716-3.892 3.869-3.892l2.841.012v3.182h-2.061c-.338 0-.813.17-.813.893v1.929h2.866l-.335 3.275z" style="fill:var(--color4,#fff)"/></symbol><symbol id="icon-facebook-icon-on" viewBox="0 0 32 32"><path fill="#D41443" d="M16 32c8.837 0 16-7.163 16-16S24.837 0 16 0 0 7.163 0 16s7.163 16 16 16z" style="fill:var(--color1,#d41443)"/><path fill="#fff" d="M20.446 15.982h-2.61v9.619h-3.955v-9.619H12v-3.38h1.881v-2.187c0-1.564.739-4.014 3.99-4.014l2.929.012v3.281h-2.125c-.349 0-.839.175-.839.921v1.989h2.955l-.346 3.377z" style="fill:var(--color4,#fff)"/></symbol><symbol id="icon-Github-icon-off" viewBox="0 0 32 32"><path fill="#FEA5BB" d="M32 16c0 8.837-7.163 16-16 16S0 24.837 0 16 7.163 0 16 0s16 7.163 16 16z" style="fill:var(--color5,#fea5bb)"/></symbol><symbol id="icon-Github-icon-on" viewBox="0 0 32 32"><path fill="#D41443" d="M32 16c0 8.837-7.163 16-16 16S0 24.837 0 16 7.163 0 16 0s16 7.163 16 16z" style="fill:var(--color1,#d41443)"/><path fill="#fff" d="M16 6.588c-5.169 0-9.412 4.242-9.412 9.412 0 4.411 3.095 8.419 7.206 9.412v-3.114a2.307 2.307 0 0 1-1.197-.03c-.556-.164-1.008-.535-1.344-1.1-.214-.361-.593-.752-.988-.723l-.097-1.099c.855-.073 1.595.521 2.034 1.259.195.328.419.52.708.605.278.082.578.043.926-.08.088-.698.407-.959.648-1.326v-.001c-2.451-.366-3.428-1.666-3.816-2.693-.514-1.363-.238-3.066.671-4.142.018-.021.05-.076.037-.114-.417-1.258.091-2.299.11-2.41.481.142.559-.143 2.089.786l.264.159c.111.066.076.028.186.02A8.031 8.031 0 0 1 16 11.131a8.016 8.016 0 0 1 2.002.285l.086.009c-.007-.001.023-.005.075-.036 1.911-1.157 1.842-.779 2.355-.946.019.111.519 1.169.107 2.411-.056.171 1.657 1.739.708 4.256-.388 1.027-1.365 2.328-3.816 2.693v.001c.314.479.692.734.69 1.722v3.887c4.111-.993 7.206-5 7.206-9.412 0-5.169-4.242-9.412-9.412-9.412z" style="fill:var(--color4,#fff)"/></symbol><symbol id="icon-Home-icon" viewBox="0 0 32 32"><path fill="#D31342" d="M30.129 15.447c.553-.6.5-1.52-.119-2.054L16.374 1.623c-.619-.534-1.611-.523-2.217.025L.475 14.02a1.414 1.414 0 0 0-.066 2.051l.343.352c.569.584 1.489.654 2.053.155l1.023-.903v13.224c0 .811.667 1.468 1.488 1.468h5.333c.822 0 1.488-.657 1.488-1.468v-9.252h6.803v9.252c-.012.811.576 1.468 1.398 1.468h5.652c.822 0 1.488-.657 1.488-1.468V15.861l.631.546c.349.302 1.078.06 1.631-.541l.388-.42z" style="fill:var(--color6,#d31342)"/></symbol><symbol id="icon-telegram-icon-off" viewBox="0 0 32 32"><path fill="#FEA5BB" d="M31.258 16c0 8.569-6.946 15.515-15.515 15.515S.228 24.569.228 16 7.174.485 15.743.485 31.258 7.431 31.258 16z" style="fill:var(--color5,#fea5bb)"/><path fill="#fff" d="m12.705 18.303-.308 4.043c.441 0 .631-.177.86-.389l2.066-1.843 4.281 2.926c.785.408 1.338.193 1.55-.674l2.811-12.289c.249-1.083-.42-1.507-1.185-1.241L6.264 14.738c-1.127.408-1.11.995-.192 1.261l4.223 1.226 9.808-5.728c.462-.285.881-.127.536.158l-7.934 6.649z" style="fill:var(--color4,#fff)"/></symbol><symbol id="icon-telegram-icon-on" viewBox="0 0 32 32"><path fill="#D41443" d="M32 16c0 8.837-7.163 16-16 16S0 24.837 0 16 7.163 0 16 0s16 7.163 16 16z" style="fill:var(--color1,#d41443)"/><path fill="#fff" d="m12.867 18.375-.318 4.169c.454 0 .651-.182.887-.401l2.13-1.9 4.415 3.017c.81.421 1.38.199 1.598-.695l2.898-12.673c.257-1.117-.433-1.554-1.222-1.28L6.223 14.698c-1.162.421-1.145 1.026-.198 1.3l4.354 1.264 10.115-5.907c.476-.294.909-.131.553.163l-8.182 6.857z" style="fill:var(--color4,#fff)"/></symbol><symbol id="icon-facebook" viewBox="0 0 33 32"><path fill="#fff" d="M20.916 15.981h-2.61v9.618h-3.955v-9.618H12.47v-3.38h1.881v-2.188c0-1.564.739-4.014 3.99-4.014l2.929.012v3.281h-2.125c-.349 0-.839.175-.839.921v1.989h2.955l-.346 3.377z" style="fill:var(--color3,#fff)"/></symbol><symbol id="icon-github" viewBox="0 0 32 32"><path fill="#fff" d="M16 6.588c-5.169 0-9.412 4.242-9.412 9.412 0 4.411 3.095 8.419 7.206 9.412v-3.114a2.307 2.307 0 0 1-1.197-.03c-.556-.164-1.008-.535-1.344-1.1-.214-.361-.593-.752-.988-.723l-.097-1.099c.855-.073 1.595.521 2.034 1.258.195.328.419.52.708.605.278.082.577.043.926-.081.088-.698.407-.959.649-1.326v-.001c-2.451-.366-3.428-1.666-3.816-2.693-.514-1.363-.238-3.066.671-4.142.018-.021.05-.076.037-.114-.417-1.258.091-2.3.11-2.41.481.142.559-.143 2.088.786l.264.159c.111.066.076.028.186.02A7.984 7.984 0 0 1 16 11.129a8.016 8.016 0 0 1 2.002.285l.086.009c-.008-.001.023-.005.075-.036 1.911-1.157 1.842-.779 2.354-.946.018.111.519 1.169.107 2.411-.056.171 1.657 1.739.708 4.256-.388 1.027-1.365 2.328-3.816 2.693v.001c.314.479.692.734.69 1.722v3.887c4.111-.993 7.206-5 7.206-9.412 0-5.169-4.242-9.412-9.412-9.412z" style="fill:var(--color3,#fff)"/></symbol><symbol id="icon-telegram" viewBox="0 0 33 32"><path fill="#fff" d="m13.102 18.375-.318 4.169c.454 0 .651-.182.887-.401l2.13-1.9 4.414 3.017c.81.421 1.38.199 1.598-.695l2.898-12.673c.257-1.117-.433-1.554-1.222-1.28L6.457 14.698c-1.162.421-1.145 1.026-.198 1.3l4.355 1.264 10.115-5.907c.476-.294.909-.131.553.163L13.1 18.375z" style="fill:var(--color3,#fff)"/></symbol><symbol id="icon-vencerero" viewBox="0 0 26 32"><path fill="none" stroke="#d41443" stroke-linecap="round" stroke-linejoin="round" stroke-width="6.4" d="M5.172 3.2 19.341 16 5.172 28.8" style="stroke:var(--color1,#d41443)"/></symbol><symbol id="icon-Burger" viewBox="0 0 32 32"><path fill="none" stroke="#d41443" stroke-width="1.6" d="M0 6.4h32M0 16h32M0 25.6h32" style="stroke:var(--color1,#d41443)"/></symbol><symbol id="icon-dot" viewBox="0 0 32 32"><path fill="#d9d9d9" d="M30.511 16c0 8.157-6.612 14.769-14.769 14.769S.973 24.157.973 16 7.585 1.231 15.742 1.231 30.511 7.843 30.511 16z" style="fill:var(--color2,#d9d9d9)"/></symbol><symbol id="icon-dots" viewBox="0 0 32 32"><path fill="#c7133e" d="M18 16a2 2 0 1 1-3.999.001A2 2 0 0 1 18 16zM4 16a2 2 0 1 1-3.999.001A2 2 0 0 1 4 16zm28 0a2 2 0 1 1-3.999.001A2 2 0 0 1 32 16z" style="fill:var(--color3,#c7133e)"/></symbol><symbol id="icon-Ex-in-modal-window" viewBox="0 0 32 32"><path fill="none" stroke="#fff" stroke-width="2" d="m2.519 2 26.963 28M2 29.481 30 2.518" style="stroke:var(--color4,#fff)"/></symbol><symbol id="icon-facebook-icon-off" viewBox="0 0 32 32"><path fill="#fea5bb" d="M15.972 31.515c8.569 0 15.515-6.946 15.515-15.515S24.541.485 15.972.485.457 7.431.457 16s6.946 15.515 15.515 15.515z" style="fill:var(--color5,#fea5bb)"/><path fill="#fff" d="M20.282 15.982h-2.531v9.327h-3.835v-9.327h-1.824v-3.278h1.824v-2.121c0-1.517.716-3.892 3.869-3.892l2.841.012v3.182h-2.061c-.338 0-.813.17-.813.893v1.929h2.866l-.335 3.275z" style="fill:var(--color4,#fff)"/></symbol><symbol id="icon-facebook-icon-on" viewBox="0 0 32 32"><path fill="#d41443" d="M16 32c8.837 0 16-7.163 16-16S24.837 0 16 0 0 7.163 0 16s7.163 16 16 16z" style="fill:var(--color1,#d41443)"/><path fill="#fff" d="M20.446 15.982h-2.61v9.619h-3.955v-9.619H12v-3.38h1.881v-2.187c0-1.564.739-4.014 3.99-4.014l2.929.012v3.281h-2.125c-.349 0-.839.175-.839.921v1.989h2.955l-.346 3.377z" style="fill:var(--color4,#fff)"/></symbol><symbol id="icon-Github-icon-off" viewBox="0 0 32 32"><path fill="#fea5bb" d="M32 16c0 8.837-7.163 16-16 16S0 24.837 0 16 7.163 0 16 0s16 7.163 16 16z" style="fill:var(--color5,#fea5bb)"/></symbol><symbol id="icon-Github-icon-on" viewBox="0 0 32 32"><path fill="#d41443" d="M32 16c0 8.837-7.163 16-16 16S0 24.837 0 16 7.163 0 16 0s16 7.163 16 16z" style="fill:var(--color1,#d41443)"/><path fill="#fff" d="M16 6.588c-5.169 0-9.412 4.242-9.412 9.412 0 4.411 3.095 8.419 7.206 9.412v-3.114a2.307 2.307 0 0 1-1.197-.03c-.556-.164-1.008-.535-1.344-1.1-.214-.361-.593-.752-.988-.723l-.097-1.099c.855-.073 1.595.521 2.034 1.259.195.328.419.52.708.605.278.082.578.043.926-.08.088-.698.407-.959.648-1.326v-.001c-2.451-.366-3.428-1.666-3.816-2.693-.514-1.363-.238-3.066.671-4.142.018-.021.05-.076.037-.114-.417-1.258.091-2.299.11-2.41.481.142.559-.143 2.089.786l.264.159c.111.066.076.028.186.02A8.031 8.031 0 0 1 16 11.131a8.016 8.016 0 0 1 2.002.285l.086.009c-.007-.001.023-.005.075-.036 1.911-1.157 1.842-.779 2.355-.946.019.111.519 1.169.107 2.411-.056.171 1.657 1.739.708 4.256-.388 1.027-1.365 2.328-3.816 2.693v.001c.314.479.692.734.69 1.722v3.887c4.111-.993 7.206-5 7.206-9.412 0-5.169-4.242-9.412-9.412-9.412z" style="fill:var(--color4,#fff)"/></symbol><symbol id="icon-Home-icon" viewBox="0 0 32 32"><path fill="#d31342" d="M30.129 15.447c.553-.6.5-1.52-.119-2.054L16.374 1.623c-.619-.534-1.611-.523-2.217.025L.475 14.02a1.414 1.414 0 0 0-.066 2.051l.343.352c.569.584 1.489.654 2.053.155l1.023-.903v13.224c0 .811.667 1.468 1.488 1.468h5.333c.822 0 1.488-.657 1.488-1.468v-9.252h6.803v9.252c-.012.811.576 1.468 1.398 1.468h5.652c.822 0 1.488-.657 1.488-1.468V15.861l.631.546c.349.302 1.078.06 1.631-.541l.388-.42z" style="fill:var(--color6,#d31342)"/></symbol><symbol id="icon-telegram-icon-off" viewBox="0 0 32 32"><path fill="#fea5bb" d="M31.258 16c0 8.569-6.946 15.515-15.515 15.515S.228 24.569.228 16 7.174.485 15.743.485 31.258 7.431 31.258 16z" style="fill:var(--color5,#fea5bb)"/><path fill="#fff" d="m12.705 18.303-.308 4.043c.441 0 .631-.177.86-.389l2.066-1.843 4.281 2.926c.785.408 1.338.193 1.55-.674l2.811-12.289c.249-1.083-.42-1.507-1.185-1.241L6.264 14.738c-1.127.408-1.11.995-.192 1.261l4.223 1.226 9.808-5.728c.462-.285.881-.127.536.158l-7.934 6.649z" style="fill:var(--color4,#fff)"/></symbol><symbol id="icon-telegram-icon-on" viewBox="0 0 32 32"><path fill="#d41443" d="M32 16c0 8.837-7.163 16-16 16S0 24.837 0 16 7.163 0 16 0s16 7.163 16 16z" style="fill:var(--color1,#d41443)"/><path fill="#fff" d="m12.867 18.375-.318 4.169c.454 0 .651-.182.887-.401l2.13-1.9 4.415 3.017c.81.421 1.38.199 1.598-.695l2.898-12.673c.257-1.117-.433-1.554-1.222-1.28L6.223 14.698c-1.162.421-1.145 1.026-.198 1.3l4.354 1.264 10.115-5.907c.476-.294.909-.131.553.163l-8.182 6.857z" style="fill:var(--color4,#fff)"/></symbol><symbol id="icon-Vector" viewBox="0 0 26 32"><path fill="none" stroke="#d41443" stroke-linecap="round" stroke-linejoin="round" stroke-width="6.4" d="M5.172 3.2 19.341 16 5.172 28.8" style="stroke:var(--color1,#d41443)"/></symbol><symbol id="contacts-vector" viewBox="0 0 22 32"><path fill="none" stroke-linejoin="round" stroke-linecap="round" stroke-width="6.4" stroke="#000" d="m4.545 3.2 13.7 12.8-13.7 12.8"/></symbol></defs></svg>